<?xml version="1.0" encoding="UTF-8"?>
<svg version="1.1" viewBox="0 0 2000 2000" width="1280" height="1280" xmlns="http://www.w3.org/2000/svg">
<path transform="translate(0)" d="m0 0h2e3v2e3h-2e3z" fill="#FEFFFF"/>
<path transform="translate(995,1058)" d="m0 0h11l14 4 10 6 9 9 7 14 2 6v18l-5 13v4l8 7 31 31 11-5 4-1h17l10 3 5 2 4-1 7-8 27-27 2-1v-5l-4-8-1-4v-17l4-13 6-9 8-8 10-6 14-4h11l12 3 11 6 9 9 7 12 3 10v16l-5 14-8 11-10 8-11 5-10 2h-9l-11-3-6-3-4 1-20 20-7 8-9 8v6l4 10 1 5v8l-4 16-6 10-5 6-10 7-8 4-12 3-12-1-13-5-11-8-8-10-5-11-2-10v-9l3-12 2-4 1-6-4-2-34-34-9 3-10 3h-10l-16-4-11-7-9-10-6-12-2-6v-19l6-15 8-10 10-7 9-4z" fill="#5081E0"/>
<path transform="translate(890,741)" d="m0 0h9l11 3 14 7 9 9 7 13 3 12v10l-5 15-1 5 20 20 8 7 8 8 1 2 7-1 8-3 6-1 16 1 11 4 8 5 8 8 7 12 3 10v14l-4 13-7 11-8 8-10 6-16 4h-7l-12-3-9-4-2 5-14 12-9 10-10 10-3 2 1 5 4 10 1 5v9l-4 15-8 12-8 8-14 7-6 2h-17l-13-5-11-8-8-10-5-10-2-10 1-14 3-10 4-8 8-9 11-7 11-4 14-1 12 3 10 4 2-4 34-34h2l-2-6-4-10-1-5v-10l3-12 4-10-4-2-21-21-8-7-6-7-6 2-8 3-6 1h-10l-11-2-11-6-9-8-7-10-4-11-1-6v-8l3-14 6-11 8-9 10-6 11-4z" fill="#5181E0"/>
<path transform="translate(783,847)" d="m0 0h12l12 3 11 6 8 8 7 11 3 9v21l-4 11-7 10-9 8-12 6-7 2h-16l-10-3-7-3-5 6-8 7-25 25 1 6 4 11 1 5v8l-4 14-2 4 1 5 15 14 19 19 3 4 5-2 9-3 5-1h13l13 4 11 7 9 10 6 13 1 4v20l-5 13-7 9-9 8-13 6-5 1h-15l-13-4-10-7-5-5-6-7-5-11-2-9v-10l3-11 3-6-1-4-8-8-6-5-7-8-10-9-7-7-13 5-4 1h-16l-13-5-12-9-9-12-4-10-1-5v-14l4-13 7-11 10-9 13-6 8-2h11l13 4 6 2 37-37 2-1-1-5-4-10-1-4v-12l4-13 5-9 9-10 8-5 11-4z" fill="#5181E0"/>
<path transform="translate(1208,847)" d="m0 0 13 1 12 4 9 6 9 10 7 14 2 9v9l-3 10-4 7 1 4 13 13 8 7 7 7 7 8 4 3 11-5 8-2h9l12 3 12 6 9 9 6 9 4 12v19l-4 11-6 9-5 5-7 6-10 5-7 2h-15l-12-4-11-7-8-8-6-10-4-16v-9l4-13 1-7-23-23-8-7-6-7-5 1-11 4-5 1h-10l-13-4-4-2-4 1-4 5-8 7-11 11-6 7-7 6-1 3 5 13 1 5v9l-3 12-5 10-9 10-8 6-11 5-4 1h-17l-11-4-9-6-10-10-7-14-2-10v-8l3-13 6-11 7-8 13-8 9-3 6-1h9l12 3 6 3 4-1 11-12 23-23 2-1v-5l-4-9-1-4v-16l3-10 4-8 7-9 10-7 13-5z" fill="#5081E0"/>
<path transform="translate(888,1164)" d="m0 0h13l8 2 9 4 11 8 7 10 4 8 3 10v13l-5 12-1 6 10 10 8 7 21 21 5-2 13-4h10l15 4 10 6 8 7 6 10 4 9 1 4v15l-3 10-6 11-10 10-12 7-12 3-15-1-10-4-9-6-7-6-7-11-4-11-1-12 3-13 4-8-7-8-32-32-6 2-11 4-3 1h-11l-12-4-11-7-10-10-7-14-1-3v-21l4-11 6-9 5-5 5-4 12-6z" fill="#6BA4EF"/>
<path transform="translate(993,636)" d="m0 0h13l12 3 10 6 8 7 8 12 4 11v17l-6 16 7 8 29 29 1 2 6-1 9-4 4-1h14l13 4 10 6 9 9 6 10 4 15v7l-3 13-6 11-9 10-14 8-6 2-9 1-15-2-12-6-10-9-7-10-4-12-1-5v-8l3-14 2-4-1-5-36-36-7 1-11 4-5 1h-8l-14-5-11-7-9-10-6-12-2-7v-17l5-13 8-11 9-7 11-5z" fill="#6BA4EF"/>
<path transform="translate(1206,1058)" d="m0 0h11l12 3 11 6 9 9 7 12 3 10v16l-5 14-8 11-10 8-11 5-10 2h-9l-11-3-6-3-4 1-20 20-7 8-9 8-1 6-2-3v-4l-4-2-9-9-4-3 4-2 7-8 27-27 2-1v-5l-4-8-1-4v-17l4-13 6-9 8-8 10-6z" fill="#5181E0"/>
<path transform="translate(783,847)" d="m0 0h12l12 3 11 6 8 8 7 11 3 9v21l-4 11-7 10-9 8-12 6-7 2h-16l-10-3-7-3-5 6-8 7-24 24v-3-2h-4l-3 1-4-4v-6h2l2-6 3-1 2-5 1-4-17 17-3-1 8-7 31-31 2-1-1-5-4-10-1-4v-12l4-13 5-9 9-10 8-5 11-4z" fill="#5081E0"/>
<path transform="translate(727,941)" d="m0 0v3l-4 8-3 2-3 6v5l4 3 6-2v2l2 1-3 5 1 6 4 11 1 5v8l-4 14-3 3-3 12v3l3 1 4 7 1 5h-2v3l2 1-2 2 3 6 2 1v2l-4-2-16-15-6-5-12 5-4 1h-16l-13-5-12-9-9-12-4-10-1-5v-14l4-13 7-11 10-9 13-6 8-2h11l13 4 4 2v2l5-3z" fill="#5081E0"/>
<path transform="translate(890,741)" d="m0 0h9l11 3 14 7 9 9 7 13 3 12v10l-5 15-3 1-1 5-10 11h-2v2h-4v2l-12 5-6 1h-10l-11-2-11-6-9-8-7-10-4-11-1-6v-8l3-14 6-11 8-9 10-6 11-4z" fill="#5081E0"/>
<path transform="translate(1102,952)" d="m0 0h9l12 3 6 3v2l5 2 10 10 2 5h2l5 13 1 5v9l-3 12-5 10-9 10-8 6-11 5-4 1h-17l-11-4-9-6-10-10-7-14-2-10v-8l3-13 6-11 7-8 13-8 9-3z" fill="#5081E0"/>
<path transform="translate(892,952)" d="m0 0 13 1 12 5v2l5 2 7 6 6 8v2h2l5 12 1 5v9l-4 15-8 12-8 8-14 7-6 2h-17l-13-5-11-8-8-10-5-10-2-10 1-14 3-10 4-8 8-9 11-7 11-4z" fill="#5081E0"/>
<path transform="translate(1097,1164)" d="m0 0h17l10 3 5 2v2l5 2 10 10 2 1 1 7h2l4 10 1 5v8l-4 16-6 10-5 6-10 7-8 4-12 3-12-1-13-5-11-8-8-10-5-11-2-10v-9l3-12 2-4h2l1-5 8-9h2v-2l3-2h3v-2l11-5z" fill="#5081E0"/>
<path transform="translate(1312,952)" d="m0 0h9l12 3 12 6 9 9 6 9 4 12v19l-4 11-6 9-5 5-7 6-10 5-7 2h-15l-12-4-11-7-8-8-6-10-4-16v-9l4-13 2-1 1-7 13-11 5-2 3-3 10-4z" fill="#5081E0"/>
<path transform="translate(994,1269)" d="m0 0h10l15 4 10 6 8 7 6 10 4 9 1 4v15l-3 10-6 11-10 10-12 7-12 3-15-1-10-4-9-6-7-6-7-11-4-11-1-12 3-13 4-7h2l-1-4 9-8h2l2-4 5-1v-2l8-4z" fill="#5081E0"/>
<path transform="translate(1098,741)" d="m0 0h14l13 4 10 6 9 9 6 10 4 15v7l-3 13-6 11-9 10-14 8-6 2-9 1-15-2-12-6-10-9-7-10-4-12-1-5v-8l2-11h2l2-6 6-9 10-10h3v-2l11-5z" fill="#5081E0"/>
<path transform="translate(959,916)" d="m0 0 3 4 7 8 9 7-3 1-2 5-14 12-9 10-10 10-3 2-2 3-9-12-9-6 4-1 2-4 34-34h2z" fill="#6CA5F0"/>
<path transform="translate(1170,1127)" d="m0 0 2 2v4l4 1v2h2l7 8 4 3-4 2-20 20-7 8-9 8-1 6-2-3v-4l-4-2-9-9-4-3 4-2 7-8 27-27 2-1z" fill="#6CA5F0"/>
<path transform="translate(1170,917)" d="m0 0 8 10 2 1v2l4 2 5 4-4 2-4 5-8 7-11 11-6 7-7 6-3 3-6-8-7-7-4-3 5-3 9-10 24-24 2-1z" fill="#6CA5F0"/>
<path transform="translate(1041,1128)" d="m0 0 2 4 8 7 27 27 4 6-6 2v2l-6 5-6 9v-6l-4-2-36-36 5-3 10-11z" fill="#6CA5F0"/>
<path transform="translate(935,811)" d="m0 0 2 4 20 20 8 7 8 8 1 2 4 2-6 4-4 2-2 4-5 5-2 3v-4l-4-2-21-21-8-7-6-7-2-2h4v-2l7-6 5-7z" fill="#6CA5F0"/>
<path transform="translate(1251,917)" d="m0 0 4 5 12 12 8 7 7 7 7 8 4 3 2 1-8 5-10 8-1 7-2 1v-7l-23-23-8-7-6-7-3-2 5-2 4-5h2l2-4 4-3z" fill="#6BA4EF"/>
<path transform="translate(748,917)" d="m0 0 1 4 4 2 7 7v2h2v2l3 1-6 7-8 7-24 24v-3-2h-4l-3 1-4-4v-6h2l2-6 3-1 2-5 1-4-17 17-3-1 8-7 31-31 2-1z" fill="#6BA4EF"/>
<path transform="translate(725,1020)" d="m0 0 1 2 1 5 15 14 19 19 5 6-5 3-5 5-5 3h-3l-1 3-9-9-6-5 1-4-3-1-3-7 1-5h2l-2-5-4-7-2-1-1-5 3-10z" fill="#6BA4EF"/>
<path transform="translate(1029,648)" d="m0 0 8 6 2 2 3 8 1 1v5l-4-1-2-5h-2l-7-11z" fill="#5181E0"/>
<path transform="translate(736,930)" d="m0 0 2 1-9 10-8 7-12 12-3-1 8-7z" fill="#5E93E8"/>
<path transform="translate(930,1185)" d="m0 0h2l4 5-1 5-5-4z" fill="#5080E0"/>
</svg>
